<mxfile host="Electron" agent="Mozilla/5.0 (Windows NT 10.0; Win64; x64) AppleWebKit/537.36 (KHTML, like Gecko) draw.io/28.0.4 Chrome/138.0.7204.97 Electron/37.2.1 Safari/537.36" version="28.0.4">
  <diagram name="Страница — 1" id="5JMjXBYwcXajjwGSg4eh">
    <mxGraphModel dx="2220" dy="1306" grid="1" gridSize="10" guides="1" tooltips="1" connect="1" arrows="1" fold="1" page="1" pageScale="1" pageWidth="827" pageHeight="1169" math="0" shadow="0">
      <root>
        <mxCell id="0" />
        <mxCell id="1" parent="0" />
        <mxCell id="sOUZLI-g3tf4AUhEfwHp-1" value="Врач" style="html=1;dashed=0;whitespace=wrap;" vertex="1" parent="1">
          <mxGeometry x="150" y="210" width="180" height="85" as="geometry" />
        </mxCell>
        <mxCell id="sOUZLI-g3tf4AUhEfwHp-2" value="Лаборатория" style="html=1;dashed=0;whitespace=wrap;" vertex="1" parent="1">
          <mxGeometry x="930" y="210" width="190" height="92.5" as="geometry" />
        </mxCell>
        <mxCell id="sOUZLI-g3tf4AUhEfwHp-3" value="Пациент" style="html=1;dashed=0;whitespace=wrap;" vertex="1" parent="1">
          <mxGeometry x="490" y="470" width="260" height="80" as="geometry" />
        </mxCell>
        <mxCell id="sOUZLI-g3tf4AUhEfwHp-4" value="0" style="swimlane;childLayout=stackLayout;horizontal=1;startSize=30;horizontalStack=0;rounded=1;fontSize=14;fontStyle=0;strokeWidth=1;resizeParent=0;resizeLast=1;shadow=0;dashed=0;align=center;fillColor=#FFFFFF;" vertex="1" parent="1">
          <mxGeometry x="485" y="170" width="265" height="150" as="geometry" />
        </mxCell>
        <mxCell id="sOUZLI-g3tf4AUhEfwHp-5" value="Приложение &quot;Вита&quot;" style="align=center;strokeColor=none;fillColor=none;spacingLeft=4;fontSize=12;verticalAlign=middle;resizable=0;rotatable=0;part=1;" vertex="1" parent="sOUZLI-g3tf4AUhEfwHp-4">
          <mxGeometry y="30" width="265" height="120" as="geometry" />
        </mxCell>
        <mxCell id="sOUZLI-g3tf4AUhEfwHp-6" value="" style="endArrow=classic;html=1;rounded=0;exitX=0.25;exitY=1;exitDx=0;exitDy=0;entryX=0.231;entryY=0;entryDx=0;entryDy=0;entryPerimeter=0;" edge="1" parent="1" source="sOUZLI-g3tf4AUhEfwHp-5" target="sOUZLI-g3tf4AUhEfwHp-3">
          <mxGeometry relative="1" as="geometry">
            <mxPoint x="485" y="310" as="sourcePoint" />
            <mxPoint x="497" y="420" as="targetPoint" />
          </mxGeometry>
        </mxCell>
        <mxCell id="sOUZLI-g3tf4AUhEfwHp-7" value="&lt;span&gt;график &lt;br&gt;работы кабинета&lt;/span&gt;" style="edgeLabel;resizable=0;html=1;;align=center;verticalAlign=middle;fontSize=8;" connectable="0" vertex="1" parent="sOUZLI-g3tf4AUhEfwHp-6">
          <mxGeometry relative="1" as="geometry">
            <mxPoint y="-35" as="offset" />
          </mxGeometry>
        </mxCell>
        <mxCell id="sOUZLI-g3tf4AUhEfwHp-8" value="" style="endArrow=classic;html=1;rounded=0;exitX=0;exitY=0.25;exitDx=0;exitDy=0;entryX=1;entryY=0.25;entryDx=0;entryDy=0;" edge="1" parent="1" source="sOUZLI-g3tf4AUhEfwHp-2" target="sOUZLI-g3tf4AUhEfwHp-5">
          <mxGeometry relative="1" as="geometry">
            <mxPoint x="635" y="264.76" as="sourcePoint" />
            <mxPoint x="650" y="250" as="targetPoint" />
          </mxGeometry>
        </mxCell>
        <mxCell id="sOUZLI-g3tf4AUhEfwHp-9" value="&lt;span&gt;результаты обследования&lt;/span&gt;" style="edgeLabel;resizable=0;html=1;;align=center;verticalAlign=middle;fontSize=11;" connectable="0" vertex="1" parent="sOUZLI-g3tf4AUhEfwHp-8">
          <mxGeometry relative="1" as="geometry" />
        </mxCell>
        <mxCell id="sOUZLI-g3tf4AUhEfwHp-10" value="" style="endArrow=classic;html=1;rounded=0;exitX=0.25;exitY=1;exitDx=0;exitDy=0;entryX=0.231;entryY=0;entryDx=0;entryDy=0;entryPerimeter=0;" edge="1" parent="1">
          <mxGeometry relative="1" as="geometry">
            <mxPoint x="601" y="321" as="sourcePoint" />
            <mxPoint x="600" y="471" as="targetPoint" />
          </mxGeometry>
        </mxCell>
        <mxCell id="sOUZLI-g3tf4AUhEfwHp-11" value="&lt;span&gt;назначение на&lt;br&gt;лечение&lt;/span&gt;" style="edgeLabel;resizable=0;html=1;;align=center;verticalAlign=middle;fontSize=8;" connectable="0" vertex="1" parent="sOUZLI-g3tf4AUhEfwHp-10">
          <mxGeometry relative="1" as="geometry">
            <mxPoint y="-6" as="offset" />
          </mxGeometry>
        </mxCell>
        <mxCell id="sOUZLI-g3tf4AUhEfwHp-12" value="" style="endArrow=classic;html=1;rounded=0;exitX=0.25;exitY=1;exitDx=0;exitDy=0;entryX=0.231;entryY=0;entryDx=0;entryDy=0;entryPerimeter=0;" edge="1" parent="1">
          <mxGeometry relative="1" as="geometry">
            <mxPoint x="661" y="320" as="sourcePoint" />
            <mxPoint x="660" y="470" as="targetPoint" />
          </mxGeometry>
        </mxCell>
        <mxCell id="sOUZLI-g3tf4AUhEfwHp-13" value="&lt;span&gt;назначение &lt;br&gt;на обследование&lt;/span&gt;" style="edgeLabel;resizable=0;html=1;;align=center;verticalAlign=middle;fontSize=8;" connectable="0" vertex="1" parent="sOUZLI-g3tf4AUhEfwHp-12">
          <mxGeometry relative="1" as="geometry">
            <mxPoint y="-26" as="offset" />
          </mxGeometry>
        </mxCell>
        <mxCell id="sOUZLI-g3tf4AUhEfwHp-14" value="" style="endArrow=classic;html=1;rounded=0;exitX=1.004;exitY=0.601;exitDx=0;exitDy=0;strokeWidth=1;entryX=0;entryY=0.5;entryDx=0;entryDy=0;exitPerimeter=0;" edge="1" parent="1" source="sOUZLI-g3tf4AUhEfwHp-1" target="sOUZLI-g3tf4AUhEfwHp-5">
          <mxGeometry relative="1" as="geometry">
            <mxPoint x="380" y="287.5" as="sourcePoint" />
            <mxPoint x="470" y="274" as="targetPoint" />
          </mxGeometry>
        </mxCell>
        <mxCell id="sOUZLI-g3tf4AUhEfwHp-15" value="&lt;span&gt;назначение на лечение&lt;/span&gt;" style="edgeLabel;resizable=0;html=1;;align=center;verticalAlign=middle;fontSize=11;" connectable="0" vertex="1" parent="sOUZLI-g3tf4AUhEfwHp-14">
          <mxGeometry relative="1" as="geometry" />
        </mxCell>
        <mxCell id="sOUZLI-g3tf4AUhEfwHp-16" value="" style="endArrow=classic;html=1;rounded=0;exitX=1;exitY=0.25;exitDx=0;exitDy=0;entryX=0;entryY=0.25;entryDx=0;entryDy=0;strokeWidth=1;" edge="1" parent="1" source="sOUZLI-g3tf4AUhEfwHp-1" target="sOUZLI-g3tf4AUhEfwHp-5">
          <mxGeometry relative="1" as="geometry">
            <mxPoint x="380" y="287.5" as="sourcePoint" />
            <mxPoint x="402" y="360" as="targetPoint" />
          </mxGeometry>
        </mxCell>
        <mxCell id="sOUZLI-g3tf4AUhEfwHp-17" value="&lt;span&gt;назначение на обследование&lt;/span&gt;" style="edgeLabel;resizable=0;html=1;;align=center;verticalAlign=middle;fontSize=11;" connectable="0" vertex="1" parent="sOUZLI-g3tf4AUhEfwHp-16">
          <mxGeometry relative="1" as="geometry" />
        </mxCell>
        <mxCell id="sOUZLI-g3tf4AUhEfwHp-18" value="" style="endArrow=classic;html=1;rounded=0;exitX=0.25;exitY=1;exitDx=0;exitDy=0;entryX=0.231;entryY=0;entryDx=0;entryDy=0;entryPerimeter=0;" edge="1" parent="1">
          <mxGeometry relative="1" as="geometry">
            <mxPoint x="718" y="320" as="sourcePoint" />
            <mxPoint x="717" y="470" as="targetPoint" />
          </mxGeometry>
        </mxCell>
        <mxCell id="sOUZLI-g3tf4AUhEfwHp-19" value="статус анализов" style="edgeLabel;resizable=0;html=1;;align=center;verticalAlign=middle;fontSize=8;" connectable="0" vertex="1" parent="sOUZLI-g3tf4AUhEfwHp-18">
          <mxGeometry relative="1" as="geometry">
            <mxPoint y="1" as="offset" />
          </mxGeometry>
        </mxCell>
        <mxCell id="sOUZLI-g3tf4AUhEfwHp-20" value="" style="endArrow=classic;html=1;rounded=0;exitX=0.25;exitY=1;exitDx=0;exitDy=0;entryX=0.231;entryY=0;entryDx=0;entryDy=0;entryPerimeter=0;" edge="1" parent="1">
          <mxGeometry relative="1" as="geometry">
            <mxPoint x="505.5" y="321" as="sourcePoint" />
            <mxPoint x="504.5" y="471" as="targetPoint" />
          </mxGeometry>
        </mxCell>
        <mxCell id="sOUZLI-g3tf4AUhEfwHp-21" value="результаты&amp;nbsp;&lt;br&gt;анализов" style="edgeLabel;resizable=0;html=1;;align=center;verticalAlign=middle;fontSize=8;" connectable="0" vertex="1" parent="sOUZLI-g3tf4AUhEfwHp-20">
          <mxGeometry relative="1" as="geometry">
            <mxPoint as="offset" />
          </mxGeometry>
        </mxCell>
        <mxCell id="sOUZLI-g3tf4AUhEfwHp-22" value="" style="endArrow=classic;html=1;rounded=0;exitX=0;exitY=0.25;exitDx=0;exitDy=0;entryX=1;entryY=0.25;entryDx=0;entryDy=0;" edge="1" parent="1">
          <mxGeometry relative="1" as="geometry">
            <mxPoint x="930" y="260" as="sourcePoint" />
            <mxPoint x="750" y="262" as="targetPoint" />
          </mxGeometry>
        </mxCell>
        <mxCell id="sOUZLI-g3tf4AUhEfwHp-23" value="&lt;span&gt;статус анализов&lt;/span&gt;" style="edgeLabel;resizable=0;html=1;;align=center;verticalAlign=middle;fontSize=11;" connectable="0" vertex="1" parent="sOUZLI-g3tf4AUhEfwHp-22">
          <mxGeometry relative="1" as="geometry" />
        </mxCell>
        <mxCell id="sOUZLI-g3tf4AUhEfwHp-24" value="модель  потоков  &#xa;данных 0 уровня" style="text;align=center;verticalAlign=top;resizable=0;points=[];autosize=1;strokeColor=none;fillColor=default;strokeWidth=1;flipH=0;flipV=1;container=1;labelPosition=center;verticalLabelPosition=middle;textShadow=1;labelBorderColor=none;labelBackgroundColor=none;gradientColor=light-dark(#caaaaa, #ededed);rounded=1;glass=1;shadow=1;horizontal=1;fontSize=19;fontColor=default;" vertex="1" parent="1">
          <mxGeometry x="514" y="50" width="180" height="60" as="geometry" />
        </mxCell>
        <mxCell id="sOUZLI-g3tf4AUhEfwHp-25" value="Врач" style="html=1;dashed=0;whitespace=wrap;" vertex="1" parent="1">
          <mxGeometry x="150" y="1037.5" width="180" height="85" as="geometry" />
        </mxCell>
        <mxCell id="sOUZLI-g3tf4AUhEfwHp-26" value="Лаборатория" style="html=1;dashed=0;whitespace=wrap;" vertex="1" parent="1">
          <mxGeometry x="993" y="1022.5" width="190" height="100" as="geometry" />
        </mxCell>
        <mxCell id="sOUZLI-g3tf4AUhEfwHp-27" value="Пациент" style="html=1;dashed=0;whitespace=wrap;" vertex="1" parent="1">
          <mxGeometry x="533" y="1290" width="260" height="80" as="geometry" />
        </mxCell>
        <mxCell id="sOUZLI-g3tf4AUhEfwHp-28" value="1" style="swimlane;childLayout=stackLayout;horizontal=1;startSize=30;horizontalStack=0;rounded=1;fontSize=14;fontStyle=0;strokeWidth=1;resizeParent=0;resizeLast=1;shadow=0;dashed=0;align=center;fillColor=#FFFFFF;" vertex="1" parent="1">
          <mxGeometry x="528" y="990" width="265" height="150" as="geometry" />
        </mxCell>
        <mxCell id="sOUZLI-g3tf4AUhEfwHp-29" value="Пройти обследвоание" style="align=center;strokeColor=none;fillColor=none;spacingLeft=4;fontSize=12;verticalAlign=middle;resizable=0;rotatable=0;part=1;" vertex="1" parent="sOUZLI-g3tf4AUhEfwHp-28">
          <mxGeometry y="30" width="265" height="120" as="geometry" />
        </mxCell>
        <mxCell id="sOUZLI-g3tf4AUhEfwHp-30" value="" style="endArrow=classic;html=1;rounded=0;exitX=0.25;exitY=1;exitDx=0;exitDy=0;entryX=0.231;entryY=0;entryDx=0;entryDy=0;entryPerimeter=0;" edge="1" parent="1">
          <mxGeometry relative="1" as="geometry">
            <mxPoint x="624.19" y="1140" as="sourcePoint" />
            <mxPoint x="623" y="1290" as="targetPoint" />
          </mxGeometry>
        </mxCell>
        <mxCell id="sOUZLI-g3tf4AUhEfwHp-31" value="&lt;span&gt;график &lt;br&gt;работы кабинета&lt;/span&gt;" style="edgeLabel;resizable=0;html=1;;align=center;verticalAlign=middle;fontSize=8;" connectable="0" vertex="1" parent="sOUZLI-g3tf4AUhEfwHp-30">
          <mxGeometry relative="1" as="geometry">
            <mxPoint y="-35" as="offset" />
          </mxGeometry>
        </mxCell>
        <mxCell id="sOUZLI-g3tf4AUhEfwHp-32" value="" style="endArrow=classic;html=1;rounded=0;exitX=0;exitY=0.25;exitDx=0;exitDy=0;entryX=1;entryY=0.25;entryDx=0;entryDy=0;" edge="1" parent="1" source="sOUZLI-g3tf4AUhEfwHp-26" target="sOUZLI-g3tf4AUhEfwHp-29">
          <mxGeometry relative="1" as="geometry">
            <mxPoint x="678" y="1084.76" as="sourcePoint" />
            <mxPoint x="693" y="1070" as="targetPoint" />
          </mxGeometry>
        </mxCell>
        <mxCell id="sOUZLI-g3tf4AUhEfwHp-33" value="&lt;span&gt;результаты обследования&lt;/span&gt;" style="edgeLabel;resizable=0;html=1;;align=center;verticalAlign=middle;fontSize=11;" connectable="0" vertex="1" parent="sOUZLI-g3tf4AUhEfwHp-32">
          <mxGeometry relative="1" as="geometry" />
        </mxCell>
        <mxCell id="sOUZLI-g3tf4AUhEfwHp-34" value="" style="endArrow=classic;html=1;rounded=0;exitX=0.25;exitY=1;exitDx=0;exitDy=0;entryX=0.231;entryY=0;entryDx=0;entryDy=0;entryPerimeter=0;" edge="1" parent="1">
          <mxGeometry relative="1" as="geometry">
            <mxPoint x="744" y="1140" as="sourcePoint" />
            <mxPoint x="743" y="1290" as="targetPoint" />
          </mxGeometry>
        </mxCell>
        <mxCell id="sOUZLI-g3tf4AUhEfwHp-35" value="&lt;span&gt;назначение &lt;br&gt;на обследование&lt;/span&gt;" style="edgeLabel;resizable=0;html=1;;align=center;verticalAlign=middle;fontSize=8;" connectable="0" vertex="1" parent="sOUZLI-g3tf4AUhEfwHp-34">
          <mxGeometry relative="1" as="geometry">
            <mxPoint y="-26" as="offset" />
          </mxGeometry>
        </mxCell>
        <mxCell id="sOUZLI-g3tf4AUhEfwHp-36" value="" style="endArrow=classic;html=1;rounded=0;exitX=1;exitY=0.5;exitDx=0;exitDy=0;entryX=0;entryY=0.5;entryDx=0;entryDy=0;strokeWidth=1;" edge="1" parent="1" source="sOUZLI-g3tf4AUhEfwHp-25" target="sOUZLI-g3tf4AUhEfwHp-29">
          <mxGeometry relative="1" as="geometry">
            <mxPoint x="423" y="1107.5" as="sourcePoint" />
            <mxPoint x="445" y="1180" as="targetPoint" />
          </mxGeometry>
        </mxCell>
        <mxCell id="sOUZLI-g3tf4AUhEfwHp-37" value="&lt;span&gt;назначение на обследование&lt;/span&gt;" style="edgeLabel;resizable=0;html=1;;align=center;verticalAlign=middle;fontSize=11;" connectable="0" vertex="1" parent="sOUZLI-g3tf4AUhEfwHp-36">
          <mxGeometry relative="1" as="geometry" />
        </mxCell>
        <mxCell id="sOUZLI-g3tf4AUhEfwHp-38" value="" style="endArrow=classic;html=1;rounded=0;exitX=0.25;exitY=1;exitDx=0;exitDy=0;entryX=0.231;entryY=0;entryDx=0;entryDy=0;entryPerimeter=0;" edge="1" parent="1">
          <mxGeometry relative="1" as="geometry">
            <mxPoint x="574" y="1140" as="sourcePoint" />
            <mxPoint x="573" y="1290" as="targetPoint" />
          </mxGeometry>
        </mxCell>
        <mxCell id="sOUZLI-g3tf4AUhEfwHp-39" value="результаты&amp;nbsp;&lt;br&gt;анализов" style="edgeLabel;resizable=0;html=1;;align=center;verticalAlign=middle;fontSize=8;" connectable="0" vertex="1" parent="sOUZLI-g3tf4AUhEfwHp-38">
          <mxGeometry relative="1" as="geometry">
            <mxPoint as="offset" />
          </mxGeometry>
        </mxCell>
        <mxCell id="sOUZLI-g3tf4AUhEfwHp-40" value="" style="endArrow=classic;html=1;rounded=0;exitX=0;exitY=0.5;exitDx=0;exitDy=0;entryX=1;entryY=0.25;entryDx=0;entryDy=0;" edge="1" parent="1" source="sOUZLI-g3tf4AUhEfwHp-26">
          <mxGeometry relative="1" as="geometry">
            <mxPoint x="973" y="1080" as="sourcePoint" />
            <mxPoint x="793" y="1082" as="targetPoint" />
          </mxGeometry>
        </mxCell>
        <mxCell id="sOUZLI-g3tf4AUhEfwHp-41" value="&lt;span&gt;статус анализов&lt;/span&gt;" style="edgeLabel;resizable=0;html=1;;align=center;verticalAlign=middle;fontSize=11;" connectable="0" vertex="1" parent="sOUZLI-g3tf4AUhEfwHp-40">
          <mxGeometry relative="1" as="geometry" />
        </mxCell>
        <mxCell id="sOUZLI-g3tf4AUhEfwHp-42" value="" style="endArrow=classic;html=1;rounded=0;exitX=0.25;exitY=1;exitDx=0;exitDy=0;entryX=0.231;entryY=0;entryDx=0;entryDy=0;entryPerimeter=0;" edge="1" parent="1">
          <mxGeometry relative="1" as="geometry">
            <mxPoint x="684" y="1140" as="sourcePoint" />
            <mxPoint x="683" y="1290" as="targetPoint" />
          </mxGeometry>
        </mxCell>
        <mxCell id="sOUZLI-g3tf4AUhEfwHp-43" value="статус анализов" style="edgeLabel;resizable=0;html=1;;align=center;verticalAlign=middle;fontSize=8;" connectable="0" vertex="1" parent="sOUZLI-g3tf4AUhEfwHp-42">
          <mxGeometry relative="1" as="geometry">
            <mxPoint as="offset" />
          </mxGeometry>
        </mxCell>
        <mxCell id="sOUZLI-g3tf4AUhEfwHp-44" value="D1&lt;span style=&quot;white-space: pre;&quot;&gt;&#x9;&lt;/span&gt;&amp;nbsp; Пациенты" style="html=1;dashed=0;whiteSpace=wrap;shape=mxgraph.dfd.dataStoreID;align=left;spacingLeft=3;points=[[0,0],[0.5,0],[1,0],[0,0.5],[1,0.5],[0,1],[0.5,1],[1,1]];" vertex="1" parent="1">
          <mxGeometry x="903" y="1220" width="150" height="30" as="geometry" />
        </mxCell>
        <mxCell id="sOUZLI-g3tf4AUhEfwHp-45" value="D4&lt;span style=&quot;white-space: pre;&quot;&gt;&#x9;&lt;/span&gt;&amp;nbsp; Расписание" style="html=1;dashed=0;whiteSpace=wrap;shape=mxgraph.dfd.dataStoreID;align=left;spacingLeft=3;points=[[0,0],[0.5,0],[1,0],[0,0.5],[1,0.5],[0,1],[0.5,1],[1,1]];" vertex="1" parent="1">
          <mxGeometry x="473" y="890" width="150" height="30" as="geometry" />
        </mxCell>
        <mxCell id="sOUZLI-g3tf4AUhEfwHp-46" value="D3&lt;span style=&quot;white-space: pre;&quot;&gt;&#x9;&lt;/span&gt;&amp;nbsp; Анализы" style="html=1;dashed=0;whiteSpace=wrap;shape=mxgraph.dfd.dataStoreID;align=left;spacingLeft=3;points=[[0,0],[0.5,0],[1,0],[0,0.5],[1,0.5],[0,1],[0.5,1],[1,1]];" vertex="1" parent="1">
          <mxGeometry x="673" y="860" width="150" height="30" as="geometry" />
        </mxCell>
        <mxCell id="sOUZLI-g3tf4AUhEfwHp-47" value="D2&lt;span style=&quot;white-space: pre;&quot;&gt;&#x9;&lt;/span&gt;&amp;nbsp; Врачи" style="html=1;dashed=0;whiteSpace=wrap;shape=mxgraph.dfd.dataStoreID;align=left;spacingLeft=3;points=[[0,0],[0.5,0],[1,0],[0,0.5],[1,0.5],[0,1],[0.5,1],[1,1]];" vertex="1" parent="1">
          <mxGeometry x="923" y="900" width="150" height="30" as="geometry" />
        </mxCell>
        <mxCell id="sOUZLI-g3tf4AUhEfwHp-48" value="" style="endArrow=classic;startArrow=classic;html=1;rounded=0;entryX=0;entryY=0.5;entryDx=0;entryDy=0;exitX=1;exitY=1;exitDx=0;exitDy=0;" edge="1" parent="1" source="sOUZLI-g3tf4AUhEfwHp-29" target="sOUZLI-g3tf4AUhEfwHp-44">
          <mxGeometry width="50" height="50" relative="1" as="geometry">
            <mxPoint x="843" y="1172.5" as="sourcePoint" />
            <mxPoint x="893" y="1122.5" as="targetPoint" />
          </mxGeometry>
        </mxCell>
        <mxCell id="sOUZLI-g3tf4AUhEfwHp-49" value="информация&amp;nbsp;&lt;br&gt;о пациентах" style="edgeLabel;html=1;align=center;verticalAlign=middle;resizable=0;points=[];" vertex="1" connectable="0" parent="sOUZLI-g3tf4AUhEfwHp-48">
          <mxGeometry x="-0.119" y="1" relative="1" as="geometry">
            <mxPoint as="offset" />
          </mxGeometry>
        </mxCell>
        <mxCell id="sOUZLI-g3tf4AUhEfwHp-50" value="" style="endArrow=classic;startArrow=classic;html=1;rounded=0;entryX=0;entryY=0.5;entryDx=0;entryDy=0;exitX=1;exitY=0;exitDx=0;exitDy=0;" edge="1" parent="1" source="sOUZLI-g3tf4AUhEfwHp-28" target="sOUZLI-g3tf4AUhEfwHp-47">
          <mxGeometry width="50" height="50" relative="1" as="geometry">
            <mxPoint x="803" y="1150" as="sourcePoint" />
            <mxPoint x="913" y="1245" as="targetPoint" />
          </mxGeometry>
        </mxCell>
        <mxCell id="sOUZLI-g3tf4AUhEfwHp-51" value="информация&lt;div&gt;&amp;nbsp;о врачах&lt;/div&gt;" style="edgeLabel;html=1;align=center;verticalAlign=middle;resizable=0;points=[];" vertex="1" connectable="0" parent="sOUZLI-g3tf4AUhEfwHp-50">
          <mxGeometry x="0.0814" y="1" relative="1" as="geometry">
            <mxPoint as="offset" />
          </mxGeometry>
        </mxCell>
        <mxCell id="sOUZLI-g3tf4AUhEfwHp-52" value="" style="endArrow=classic;startArrow=classic;html=1;rounded=0;exitX=0.25;exitY=0;exitDx=0;exitDy=0;" edge="1" parent="1" source="sOUZLI-g3tf4AUhEfwHp-28" target="sOUZLI-g3tf4AUhEfwHp-45">
          <mxGeometry width="50" height="50" relative="1" as="geometry">
            <mxPoint x="803" y="1000" as="sourcePoint" />
            <mxPoint x="893" y="955" as="targetPoint" />
          </mxGeometry>
        </mxCell>
        <mxCell id="sOUZLI-g3tf4AUhEfwHp-53" value="информация&lt;div&gt;о расписании&lt;/div&gt;" style="edgeLabel;html=1;align=center;verticalAlign=middle;resizable=0;points=[];" vertex="1" connectable="0" parent="sOUZLI-g3tf4AUhEfwHp-52">
          <mxGeometry x="0.0525" y="1" relative="1" as="geometry">
            <mxPoint as="offset" />
          </mxGeometry>
        </mxCell>
        <mxCell id="sOUZLI-g3tf4AUhEfwHp-54" value="" style="endArrow=classic;startArrow=classic;html=1;rounded=0;exitX=0.75;exitY=0;exitDx=0;exitDy=0;entryX=0.5;entryY=1;entryDx=0;entryDy=0;" edge="1" parent="1" source="sOUZLI-g3tf4AUhEfwHp-28" target="sOUZLI-g3tf4AUhEfwHp-46">
          <mxGeometry width="50" height="50" relative="1" as="geometry">
            <mxPoint x="604" y="1000" as="sourcePoint" />
            <mxPoint x="566" y="930" as="targetPoint" />
          </mxGeometry>
        </mxCell>
        <mxCell id="sOUZLI-g3tf4AUhEfwHp-55" value="информация&amp;nbsp;&lt;br&gt;об анализах" style="edgeLabel;html=1;align=center;verticalAlign=middle;resizable=0;points=[];" vertex="1" connectable="0" parent="sOUZLI-g3tf4AUhEfwHp-54">
          <mxGeometry x="-0.0381" relative="1" as="geometry">
            <mxPoint y="-12" as="offset" />
          </mxGeometry>
        </mxCell>
        <mxCell id="sOUZLI-g3tf4AUhEfwHp-56" value="Врач" style="html=1;dashed=0;whitespace=wrap;" vertex="1" parent="1">
          <mxGeometry x="157" y="1617.5" width="180" height="85" as="geometry" />
        </mxCell>
        <mxCell id="sOUZLI-g3tf4AUhEfwHp-57" value="Пациент" style="html=1;dashed=0;whitespace=wrap;" vertex="1" parent="1">
          <mxGeometry x="527" y="1870" width="260" height="80" as="geometry" />
        </mxCell>
        <mxCell id="sOUZLI-g3tf4AUhEfwHp-58" value="2" style="swimlane;childLayout=stackLayout;horizontal=1;startSize=30;horizontalStack=0;rounded=1;fontSize=14;fontStyle=0;strokeWidth=1;resizeParent=0;resizeLast=1;shadow=0;dashed=0;align=center;fillColor=#FFFFFF;" vertex="1" parent="1">
          <mxGeometry x="522" y="1570" width="265" height="150" as="geometry" />
        </mxCell>
        <mxCell id="sOUZLI-g3tf4AUhEfwHp-59" value="Пройти&#xa;медикаментозное&#xa;лечение" style="align=center;strokeColor=none;fillColor=none;spacingLeft=4;fontSize=12;verticalAlign=middle;resizable=0;rotatable=0;part=1;" vertex="1" parent="sOUZLI-g3tf4AUhEfwHp-58">
          <mxGeometry y="30" width="265" height="120" as="geometry" />
        </mxCell>
        <mxCell id="sOUZLI-g3tf4AUhEfwHp-60" value="" style="endArrow=classic;html=1;rounded=0;exitX=0.25;exitY=1;exitDx=0;exitDy=0;entryX=0.231;entryY=0;entryDx=0;entryDy=0;entryPerimeter=0;" edge="1" parent="1">
          <mxGeometry relative="1" as="geometry">
            <mxPoint x="657.5" y="1720" as="sourcePoint" />
            <mxPoint x="656.5" y="1870" as="targetPoint" />
          </mxGeometry>
        </mxCell>
        <mxCell id="sOUZLI-g3tf4AUhEfwHp-61" value="&lt;span&gt;назначение на&lt;br&gt;медикаментозное лечение&lt;/span&gt;" style="edgeLabel;resizable=0;html=1;;align=center;verticalAlign=middle;fontSize=8;" connectable="0" vertex="1" parent="sOUZLI-g3tf4AUhEfwHp-60">
          <mxGeometry relative="1" as="geometry">
            <mxPoint y="-26" as="offset" />
          </mxGeometry>
        </mxCell>
        <mxCell id="sOUZLI-g3tf4AUhEfwHp-62" value="" style="endArrow=classic;html=1;rounded=0;exitX=1;exitY=0.5;exitDx=0;exitDy=0;entryX=0;entryY=0.5;entryDx=0;entryDy=0;strokeWidth=1;" edge="1" parent="1" source="sOUZLI-g3tf4AUhEfwHp-56" target="sOUZLI-g3tf4AUhEfwHp-59">
          <mxGeometry relative="1" as="geometry">
            <mxPoint x="417" y="1687.5" as="sourcePoint" />
            <mxPoint x="439" y="1760" as="targetPoint" />
          </mxGeometry>
        </mxCell>
        <mxCell id="sOUZLI-g3tf4AUhEfwHp-63" value="&lt;span&gt;назначение на лечение&lt;/span&gt;" style="edgeLabel;resizable=0;html=1;;align=center;verticalAlign=middle;fontSize=11;" connectable="0" vertex="1" parent="sOUZLI-g3tf4AUhEfwHp-62">
          <mxGeometry relative="1" as="geometry" />
        </mxCell>
        <mxCell id="sOUZLI-g3tf4AUhEfwHp-64" value="D1&lt;span style=&quot;white-space: pre;&quot;&gt;&#x9;&lt;/span&gt;&amp;nbsp; Пациенты" style="html=1;dashed=0;whiteSpace=wrap;shape=mxgraph.dfd.dataStoreID;align=left;spacingLeft=3;points=[[0,0],[0.5,0],[1,0],[0,0.5],[1,0.5],[0,1],[0.5,1],[1,1]];" vertex="1" parent="1">
          <mxGeometry x="897" y="1800" width="150" height="30" as="geometry" />
        </mxCell>
        <mxCell id="sOUZLI-g3tf4AUhEfwHp-65" value="D2&lt;span style=&quot;white-space: pre;&quot;&gt;&#x9;&lt;/span&gt;&amp;nbsp; Врачи" style="html=1;dashed=0;whiteSpace=wrap;shape=mxgraph.dfd.dataStoreID;align=left;spacingLeft=3;points=[[0,0],[0.5,0],[1,0],[0,0.5],[1,0.5],[0,1],[0.5,1],[1,1]];" vertex="1" parent="1">
          <mxGeometry x="917" y="1480" width="150" height="30" as="geometry" />
        </mxCell>
        <mxCell id="sOUZLI-g3tf4AUhEfwHp-66" value="" style="endArrow=classic;startArrow=classic;html=1;rounded=0;entryX=0;entryY=0.5;entryDx=0;entryDy=0;exitX=1;exitY=1;exitDx=0;exitDy=0;" edge="1" parent="1" source="sOUZLI-g3tf4AUhEfwHp-59" target="sOUZLI-g3tf4AUhEfwHp-64">
          <mxGeometry width="50" height="50" relative="1" as="geometry">
            <mxPoint x="837" y="1752.5" as="sourcePoint" />
            <mxPoint x="887" y="1702.5" as="targetPoint" />
          </mxGeometry>
        </mxCell>
        <mxCell id="sOUZLI-g3tf4AUhEfwHp-67" value="информация&amp;nbsp;&lt;br&gt;о пациентах" style="edgeLabel;html=1;align=center;verticalAlign=middle;resizable=0;points=[];" vertex="1" connectable="0" parent="sOUZLI-g3tf4AUhEfwHp-66">
          <mxGeometry x="-0.119" y="1" relative="1" as="geometry">
            <mxPoint as="offset" />
          </mxGeometry>
        </mxCell>
        <mxCell id="sOUZLI-g3tf4AUhEfwHp-68" value="" style="endArrow=classic;startArrow=classic;html=1;rounded=0;entryX=0;entryY=0.5;entryDx=0;entryDy=0;exitX=1;exitY=0;exitDx=0;exitDy=0;" edge="1" parent="1" source="sOUZLI-g3tf4AUhEfwHp-58" target="sOUZLI-g3tf4AUhEfwHp-65">
          <mxGeometry width="50" height="50" relative="1" as="geometry">
            <mxPoint x="797" y="1730" as="sourcePoint" />
            <mxPoint x="907" y="1825" as="targetPoint" />
          </mxGeometry>
        </mxCell>
        <mxCell id="sOUZLI-g3tf4AUhEfwHp-69" value="информация&lt;div&gt;&amp;nbsp;о врачах&lt;/div&gt;" style="edgeLabel;html=1;align=center;verticalAlign=middle;resizable=0;points=[];" vertex="1" connectable="0" parent="sOUZLI-g3tf4AUhEfwHp-68">
          <mxGeometry x="0.0814" y="1" relative="1" as="geometry">
            <mxPoint as="offset" />
          </mxGeometry>
        </mxCell>
        <mxCell id="sOUZLI-g3tf4AUhEfwHp-70" value="Элементы для построения логических моделей потоков данных уровня 1" style="text;align=center;verticalAlign=top;resizable=0;points=[];autosize=1;strokeColor=none;fillColor=default;strokeWidth=1;flipH=0;flipV=1;container=1;labelPosition=center;verticalLabelPosition=middle;textShadow=1;labelBorderColor=none;labelBackgroundColor=none;gradientColor=light-dark(#caaaaa, #ededed);rounded=1;glass=1;shadow=1;horizontal=1;fontSize=21;fontColor=default;" vertex="1" parent="1">
          <mxGeometry x="324" y="680" width="740" height="40" as="geometry" />
        </mxCell>
      </root>
    </mxGraphModel>
  </diagram>
</mxfile>
